<svg width="500" height="500" viewBox="0 0 500 500" fill="none" xmlns="http://www.w3.org/2000/svg">
<path d="M500 382.398H0V382.648H500V382.398Z" fill="#EBEBEB"/>
<path d="M449.901 398.494H416.779V398.744H449.901V398.494Z" fill="#EBEBEB"/>
<path d="M331.22 401.208H322.527V401.458H331.22V401.208Z" fill="#EBEBEB"/>
<path d="M415.778 389.208H396.586V389.458H415.778V389.208Z" fill="#EBEBEB"/>
<path d="M95.652 390.888H52.459V391.138H95.652V390.888Z" fill="#EBEBEB"/>
<path d="M110.889 390.888H104.556V391.138H110.889V390.888Z" fill="#EBEBEB"/>
<path d="M225.147 395.111H131.471V395.361H225.147V395.111Z" fill="#EBEBEB"/>
<path d="M237.014 337.8H43.915C40.768 337.8 38.207 335.239 38.207 332.092V60.66C38.207 57.513 40.768 54.952 43.915 54.952H237.014C240.16 54.952 242.721 57.513 242.721 60.66V332.092C242.721 335.239 240.16 337.8 237.014 337.8ZM43.915 55.203C40.905 55.203 38.457 57.651 38.457 60.661V332.093C38.457 335.103 40.905 337.551 43.915 337.551H237.014C240.023 337.551 242.471 335.103 242.471 332.093V60.66C242.471 57.651 240.023 55.202 237.014 55.202L43.915 55.203Z" fill="#EBEBEB"/>
<path d="M453.31 337.8H260.212C257.065 337.8 254.505 335.239 254.505 332.092V60.66C254.505 57.513 257.066 54.952 260.212 54.952H453.31C456.458 54.952 459.018 57.513 459.018 60.66V332.092C459.019 335.239 456.458 337.8 453.31 337.8ZM260.212 55.203C257.203 55.203 254.755 57.651 254.755 60.661V332.093C254.755 335.103 257.203 337.551 260.212 337.551H453.31C456.32 337.551 458.768 335.103 458.768 332.093V60.66C458.768 57.651 456.32 55.202 453.31 55.202L260.212 55.203Z" fill="#EBEBEB"/>
<path d="M242.34 173.877H100.355V382.046H242.34V173.877Z" fill="#F0F0F0"/>
<path d="M237.321 180.43H105.374V218.877H237.321V180.43Z" fill="#E0E0E0"/>
<path d="M112.869 186.654H105.374V218.877H112.869V186.654Z" fill="#EBEBEB"/>
<path d="M149.113 186.654H141.617V218.877H149.113V186.654Z" fill="#EBEBEB"/>
<path d="M190.255 185.864L182.868 187.137L188.339 218.893L195.727 217.62L190.255 185.864Z" fill="#EBEBEB"/>
<path d="M122.156 190.9H114.661V218.876H122.156V190.9Z" fill="#EBEBEB"/>
<path d="M139.385 190.9H131.89V218.876H139.385V190.9Z" fill="#EBEBEB"/>
<path d="M182.871 190.9H175.376V218.876H182.871V190.9Z" fill="#EBEBEB"/>
<path d="M158.957 189.944L151.64 191.57L157.708 218.88L165.025 217.254L158.957 189.944Z" fill="#EBEBEB"/>
<path d="M128.639 185.054H124.891V218.876H128.639V185.054Z" fill="#EBEBEB"/>
<path d="M173.222 185.054H169.474V218.876H173.222V185.054Z" fill="#EBEBEB"/>
<path d="M105.374 263.411H237.321V224.964H105.374V263.411Z" fill="#E0E0E0"/>
<path d="M229.826 263.411H237.321V231.189H229.826V263.411Z" fill="#EBEBEB"/>
<path d="M193.582 263.411H201.078V231.189H193.582V263.411Z" fill="#EBEBEB"/>
<path d="M146.952 262.138L154.339 263.41L159.81 231.654L152.424 230.382L146.952 262.138Z" fill="#EBEBEB"/>
<path d="M220.538 263.411H228.034V235.435H220.538V263.411Z" fill="#EBEBEB"/>
<path d="M203.309 263.411H210.805V235.435H203.309V263.411Z" fill="#EBEBEB"/>
<path d="M159.823 263.411H167.319V235.435H159.823V263.411Z" fill="#EBEBEB"/>
<path d="M177.671 261.783L184.988 263.408L191.056 236.098L183.739 234.473L177.671 261.783Z" fill="#EBEBEB"/>
<path d="M214.057 263.411H217.805V229.589H214.057V263.411Z" fill="#EBEBEB"/>
<path d="M169.473 263.411H173.221V229.589H169.473V263.411Z" fill="#EBEBEB"/>
<path d="M112.869 231.188H105.374V263.41H112.869V231.188Z" fill="#EBEBEB"/>
<path d="M122.156 235.435H114.661V263.411H122.156V235.435Z" fill="#EBEBEB"/>
<path d="M139.385 235.435H131.89V263.411H139.385V235.435Z" fill="#EBEBEB"/>
<path d="M128.639 229.589H124.891V263.411H128.639V229.589Z" fill="#EBEBEB"/>
<path d="M237.321 269.499H105.374V307.946H237.321V269.499Z" fill="#E0E0E0"/>
<path d="M188.603 275.723H181.107V307.946H188.603V275.723Z" fill="#EBEBEB"/>
<path d="M229.742 274.936L222.355 276.209L227.826 307.965L235.214 306.692L229.742 274.936Z" fill="#EBEBEB"/>
<path d="M161.647 279.969H154.151V307.945H161.647V279.969Z" fill="#EBEBEB"/>
<path d="M178.875 279.969H171.38V307.945H178.875V279.969Z" fill="#EBEBEB"/>
<path d="M222.362 279.969H214.866V307.945H222.362V279.969Z" fill="#EBEBEB"/>
<path d="M198.448 279.012L191.131 280.638L197.199 307.948L204.516 306.322L198.448 279.012Z" fill="#EBEBEB"/>
<path d="M168.129 274.123H164.381V307.945H168.129V274.123Z" fill="#EBEBEB"/>
<path d="M212.712 274.123H208.964V307.945H212.712V274.123Z" fill="#EBEBEB"/>
<path d="M143.506 274.933L136.119 276.206L141.59 307.961L148.978 306.689L143.506 274.933Z" fill="#EBEBEB"/>
<path d="M136.129 279.969H128.633V307.945H136.129V279.969Z" fill="#EBEBEB"/>
<path d="M112.213 279.012L104.896 280.638L110.964 307.948L118.281 306.322L112.213 279.012Z" fill="#EBEBEB"/>
<path d="M126.478 274.123H122.73V307.945H126.478V274.123Z" fill="#EBEBEB"/>
<path d="M75.8602 382.592H100.355L100.355 173.877H75.8602L75.8602 382.592Z" fill="#E0E0E0"/>
<path d="M325.437 377.144H304.625L315.566 288.037C316.029 284.265 319.462 281.207 323.234 281.207H330.386H414.043L400.731 377.144H325.437Z" fill="#F5F5F5"/>
<path d="M391.443 377.144H412.255L423.196 288.037C423.659 284.265 420.977 281.207 417.205 281.207H410.053C406.281 281.207 402.848 284.265 402.385 288.037L391.443 377.144Z" fill="#F0F0F0"/>
<path d="M383.776 377.039L387.547 333.94C387.715 332.015 389.203 330.468 391.12 330.223L392.671 330.025C395.242 329.697 397.237 327.621 397.463 325.039L398.151 317.181C398.433 313.96 395.894 311.19 392.661 311.19H427.442C430.675 311.19 433.214 313.96 432.932 317.181L432.244 325.039C432.018 327.621 430.023 329.697 427.452 330.025L425.901 330.223C423.984 330.468 422.497 332.015 422.329 333.94L418.558 377.039C418.283 380.181 415.652 382.592 412.498 382.592H377.717C380.87 382.592 383.501 380.181 383.776 377.039Z" fill="#E6E6E6"/>
<path d="M288.061 323.15C287.469 316.382 281.802 311.189 275.008 311.189H291.837H305.287C312.081 311.189 317.748 316.382 318.34 323.15L321.329 357.315H291.049L288.061 323.15Z" fill="#E6E6E6"/>
<path d="M261.557 311.189H275.007C281.801 311.189 287.468 316.382 288.06 323.15L291.049 357.314H363.166L366.155 323.149C366.747 316.381 372.414 311.188 379.208 311.188H392.658C395.891 311.188 398.43 313.958 398.148 317.179L397.46 325.037C397.234 327.619 395.239 329.695 392.668 330.023L391.117 330.221C389.2 330.466 387.713 332.013 387.544 333.938L383.773 377.037C383.498 380.179 380.867 382.59 377.713 382.59H276.501C273.347 382.59 270.716 380.179 270.441 377.037L266.67 333.938C266.502 332.013 265.014 330.466 263.098 330.221L261.547 330.023C258.976 329.695 256.981 327.619 256.755 325.037L256.067 317.179C255.785 313.96 258.324 311.189 261.557 311.189Z" fill="#F0F0F0"/>
<path d="M102.159 163.477C102.159 163.477 101.051 156.174 106.378 151.491C111.704 146.808 111.236 144.023 109.714 143.66C108.192 143.297 106.787 147.979 104.446 149.267C104.446 149.267 104.372 142.594 106.75 140.136C109.128 137.678 110.376 131.345 108.113 131.233C105.85 131.122 105.616 134.995 105.148 137.741C104.68 140.487 102.158 144.35 102.158 144.35C102.158 144.35 101.666 138.379 100.129 135.921C98.5921 133.463 102.69 127.843 101.109 125.385C99.5291 122.927 96.7191 127.609 96.9531 132.877C97.1871 138.145 100.699 143.764 99.8801 149.266C99.8801 149.266 98.3311 145.403 96.9401 145.052C95.5491 144.701 94.1441 142.146 93.2081 141.199C92.2711 140.252 91.1011 143.53 93.2081 146.574C95.3151 149.618 100.7 157.761 99.8811 164.342L102.159 163.477Z" fill="#E6E6E6"/>
<path d="M105.343 160.155L107.087 171.101C107.626 174.481 105.014 177.542 101.591 177.542H99.73C96.307 177.542 93.695 174.481 94.234 171.101L95.978 160.155H105.343Z" fill="#E6E6E6"/>
<path d="M210.056 175.393H215.488V152.042H210.056V175.393Z" fill="#EBEBEB"/>
<path d="M183.791 175.393H189.223V152.042H183.791V175.393Z" fill="#EBEBEB"/>
<path d="M149.996 174.474L155.349 175.396L159.314 152.384L153.961 151.461L149.996 174.474Z" fill="#EBEBEB"/>
<path d="M203.326 175.394H208.758V155.12H203.326V175.394Z" fill="#EBEBEB"/>
<path d="M190.84 175.394H196.272V155.12H190.84V175.394Z" fill="#EBEBEB"/>
<path d="M159.326 175.394H164.758V155.12H159.326V175.394Z" fill="#EBEBEB"/>
<path d="M172.256 174.215L177.559 175.393L181.956 155.602L176.654 154.423L172.256 174.215Z" fill="#EBEBEB"/>
<path d="M198.628 175.393H201.344V150.882H198.628V175.393Z" fill="#EBEBEB"/>
<path d="M166.32 175.393H169.036V150.882H166.32V175.393Z" fill="#EBEBEB"/>
<path d="M146.946 156.859H120.479V175.131H146.946V156.859Z" fill="#EBEBEB"/>
<path d="M237.731 164.343H215.558V177.985H237.731V164.343Z" fill="#EBEBEB"/>
<path d="M232.547 152.352H221.46V165.993H232.547V152.352Z" fill="#EBEBEB"/>
<path d="M417.813 134.303H391.443V244.188H417.813V134.303Z" fill="#E0E0E0"/>
<path d="M316.365 244.477H414.982V134.302H316.365V244.477Z" fill="#E0E0E0"/>
<path d="M313.186 244.477H415.506V134.302H313.186V244.477Z" fill="#F0F0F0"/>
<path d="M317.555 239.415H411.299V137.816H317.555V239.415Z" fill="white"/>
<path d="M317.555 239.415H319.294V137.816H317.555V239.415Z" fill="#E0E0E0"/>
<path d="M319.002 210.877V213.617H411.543V210.877H319.002Z" fill="#E0E0E0"/>
<path d="M317.555 210.877H412.769V206.277H317.555V210.877Z" fill="#F0F0F0"/>
<path d="M250 427.561C357.082 427.561 443.889 422.492 443.889 416.238C443.889 409.985 357.082 404.915 250 404.915C142.918 404.915 56.1111 409.985 56.1111 416.238C56.1111 422.492 142.918 427.561 250 427.561Z" fill="#F5F5F5"/>
<path d="M321.955 378.128H143.035C138.995 378.128 135.719 374.853 135.719 370.812V160.14C135.719 156.1 138.994 152.824 143.035 152.824H321.954C325.994 152.824 329.27 156.099 329.27 160.14V370.812C329.271 374.852 325.995 378.128 321.955 378.128Z" fill="#2D545E"/>
<path opacity="0.6" d="M321.236 377.304H142.316C138.276 377.304 135 374.029 135 369.988V159.316C135 155.276 138.275 152 142.316 152H321.235C325.275 152 328.551 155.275 328.551 159.316V369.988C328.552 374.028 325.276 377.304 321.236 377.304Z" fill="white"/>
<path d="M297.914 256.147H167.077V278.55H297.914V256.147Z" fill="white"/>
<g opacity="0.4">
<path d="M178.776 269.528V270.115H174.236V263.695H178.638V264.282H174.915V266.566H178.235V267.143H174.915V269.528H178.776Z" fill="#263238"/>
<path d="M179.694 267.346H182.097V267.914H179.694V267.346Z" fill="#263238"/>
<path d="M191.515 267.318V270.115H190.864V267.382C190.864 266.364 190.35 265.842 189.479 265.842C188.489 265.842 187.865 266.484 187.865 267.584V270.115H187.214V267.382C187.214 266.364 186.7 265.842 185.82 265.842C184.839 265.842 184.206 266.484 184.206 267.584V270.115H183.555V265.291H184.179V266.172C184.518 265.594 185.142 265.255 185.949 265.255C186.747 265.255 187.37 265.594 187.664 266.273C188.013 265.65 188.701 265.255 189.572 265.255C190.745 265.255 191.515 265.934 191.515 267.318Z" fill="#263238"/>
<path d="M196.926 267.125V270.115H196.302V269.363C196.009 269.858 195.44 270.161 194.642 270.161C193.551 270.161 192.881 269.592 192.881 268.758C192.881 268.015 193.358 267.392 194.743 267.392H196.274V267.098C196.274 266.273 195.806 265.824 194.908 265.824C194.284 265.824 193.697 266.044 193.303 266.392L193.01 265.906C193.496 265.494 194.211 265.256 194.972 265.256C196.22 265.255 196.926 265.878 196.926 267.125ZM196.275 268.666V267.877H194.762C193.826 267.877 193.524 268.244 193.524 268.739C193.524 269.299 193.973 269.647 194.744 269.647C195.477 269.647 196.018 269.299 196.275 268.666Z" fill="#263238"/>
<path d="M198.55 263.769C198.55 263.522 198.761 263.311 199.027 263.311C199.293 263.311 199.504 263.513 199.504 263.76C199.504 264.026 199.302 264.237 199.027 264.237C198.761 264.236 198.55 264.025 198.55 263.769ZM198.696 265.291H199.347V270.115H198.696V265.291Z" fill="#263238"/>
<path d="M201.163 263.31H201.814V270.115H201.163V263.31Z" fill="#263238"/>
</g>
<path d="M297.914 286.75H167.077V309.153H297.914V286.75Z" fill="white"/>
<g opacity="0.4">
<path d="M179.263 296.533C179.263 297.9 178.273 298.725 176.64 298.725H174.916V300.751H174.237V294.332H176.64C178.273 294.333 179.263 295.158 179.263 296.533ZM178.584 296.533C178.584 295.507 177.906 294.92 176.622 294.92H174.916V298.129H176.622C177.906 298.129 178.584 297.542 178.584 296.533Z" fill="#263238"/>
<path d="M184.188 297.763V300.752H183.564V300C183.27 300.495 182.702 300.798 181.904 300.798C180.813 300.798 180.143 300.23 180.143 299.395C180.143 298.653 180.62 298.029 182.005 298.029H183.536V297.735C183.536 296.91 183.068 296.461 182.17 296.461C181.547 296.461 180.96 296.682 180.565 297.029L180.272 296.544C180.758 296.131 181.473 295.893 182.234 295.893C183.481 295.892 184.188 296.516 184.188 297.763ZM183.537 299.303V298.515H182.024C181.088 298.515 180.786 298.881 180.786 299.376C180.786 299.935 181.235 300.284 182.006 300.284C182.739 300.284 183.28 299.935 183.537 299.303Z" fill="#263238"/>
<path d="M185.289 300.202L185.582 299.688C185.967 299.991 186.619 300.229 187.297 300.229C188.214 300.229 188.59 299.916 188.59 299.44C188.59 298.184 185.463 299.174 185.463 297.267C185.463 296.478 186.142 295.891 187.371 295.891C187.994 295.891 188.673 296.065 189.077 296.34L188.793 296.863C188.371 296.57 187.867 296.451 187.372 296.451C186.5 296.451 186.116 296.79 186.116 297.249C186.116 298.551 189.243 297.569 189.243 299.422C189.243 300.257 188.51 300.798 187.253 300.798C186.454 300.798 185.683 300.541 185.289 300.202Z" fill="#263238"/>
<path d="M189.773 300.202L190.067 299.688C190.452 299.991 191.104 300.229 191.782 300.229C192.699 300.229 193.076 299.916 193.076 299.44C193.076 298.184 189.949 299.174 189.949 297.267C189.949 296.478 190.628 295.891 191.857 295.891C192.481 295.891 193.159 296.065 193.563 296.34L193.279 296.863C192.857 296.57 192.353 296.451 191.858 296.451C190.986 296.451 190.602 296.79 190.602 297.249C190.602 298.551 193.729 297.569 193.729 299.422C193.729 300.257 192.996 300.798 191.739 300.798C190.938 300.798 190.167 300.541 189.773 300.202Z" fill="#263238"/>
<path d="M201.915 295.929L200.09 300.752H199.476L197.953 296.8L196.431 300.752H195.817L194.001 295.929H194.624L196.137 300.028L197.687 295.929H198.247L199.787 300.028L201.319 295.929H201.915Z" fill="#263238"/>
<path d="M202.273 298.34C202.273 296.909 203.318 295.892 204.731 295.892C206.144 295.892 207.18 296.91 207.18 298.34C207.18 299.771 206.144 300.798 204.731 300.798C203.319 300.798 202.273 299.771 202.273 298.34ZM206.52 298.34C206.52 297.212 205.759 296.46 204.732 296.46C203.705 296.46 202.935 297.212 202.935 298.34C202.935 299.468 203.706 300.22 204.732 300.22C205.758 300.22 206.52 299.468 206.52 298.34Z" fill="#263238"/>
<path d="M210.94 295.892V296.525C210.885 296.525 210.83 296.516 210.784 296.516C209.775 296.516 209.161 297.158 209.161 298.294V300.752H208.51V295.929H209.134V296.873C209.436 296.23 210.051 295.892 210.94 295.892Z" fill="#263238"/>
<path d="M216.47 293.947V300.752H215.846V299.798C215.452 300.449 214.783 300.798 213.985 300.798C212.609 300.798 211.582 299.798 211.582 298.34C211.582 296.882 212.609 295.892 213.985 295.892C214.755 295.892 215.416 296.222 215.819 296.846V293.948H216.47V293.947ZM215.829 298.34C215.829 297.212 215.059 296.46 214.04 296.46C213.013 296.46 212.243 297.212 212.243 298.34C212.243 299.468 213.013 300.22 214.04 300.22C215.058 300.22 215.829 299.468 215.829 298.34Z" fill="#263238"/>
</g>
<path opacity="0.2" d="M297.914 332.003H167.077V354.406H297.914V332.003Z" fill="black"/>
<g opacity="0.5">
<path d="M198.896 321.707H196.76L196.3 322.731H195.878L197.631 318.896H198.031L199.784 322.731H199.357L198.896 321.707ZM198.749 321.378L197.829 319.318L196.909 321.378H198.749Z" fill="black"/>
<path d="M200.34 318.667H200.729V322.731H200.34V318.667Z" fill="black"/>
<path d="M203.266 319.828V320.206C203.233 320.206 203.2 320.2 203.173 320.2C202.57 320.2 202.203 320.584 202.203 321.264V322.732H201.814V319.85H202.186V320.414C202.368 320.031 202.734 319.828 203.266 319.828Z" fill="black"/>
<path d="M206.45 321.411H204.04C204.084 322.014 204.544 322.414 205.174 322.414C205.525 322.414 205.837 322.288 206.056 322.036L206.275 322.288C206.018 322.595 205.618 322.759 205.163 322.759C204.265 322.759 203.651 322.146 203.651 321.291C203.651 320.437 204.248 319.828 205.059 319.828C205.87 319.828 206.456 320.425 206.456 321.291C206.456 321.323 206.45 321.367 206.45 321.411ZM204.04 321.121H206.083C206.034 320.557 205.623 320.162 205.059 320.162C204.5 320.162 204.089 320.557 204.04 321.121Z" fill="black"/>
<path d="M209.345 320.945V322.731H208.973V322.282C208.798 322.578 208.458 322.759 207.981 322.759C207.329 322.759 206.929 322.419 206.929 321.921C206.929 321.477 207.214 321.105 208.041 321.105H208.956V320.93C208.956 320.437 208.677 320.168 208.14 320.168C207.767 320.168 207.417 320.299 207.181 320.508L207.006 320.217C207.296 319.971 207.724 319.828 208.178 319.828C208.923 319.828 209.345 320.2 209.345 320.945ZM208.956 321.866V321.394H208.052C207.493 321.394 207.312 321.614 207.312 321.91C207.312 322.244 207.581 322.452 208.041 322.452C208.479 322.452 208.802 322.244 208.956 321.866Z" fill="black"/>
<path d="M213.044 318.667V322.731H212.672V322.162C212.436 322.551 212.036 322.759 211.56 322.759C210.739 322.759 210.125 322.162 210.125 321.291C210.125 320.42 210.739 319.828 211.56 319.828C212.02 319.828 212.414 320.025 212.656 320.397V318.667H213.044ZM212.661 321.291C212.661 320.617 212.201 320.168 211.593 320.168C210.979 320.168 210.519 320.617 210.519 321.291C210.519 321.965 210.979 322.414 211.593 322.414C212.201 322.414 212.661 321.965 212.661 321.291Z" fill="black"/>
<path d="M216.553 319.85L215.113 323.077C214.872 323.641 214.565 323.822 214.154 323.822C213.886 323.822 213.628 323.735 213.453 323.559L213.634 323.269C213.776 323.412 213.951 323.488 214.16 323.488C214.417 323.488 214.593 323.368 214.757 323.006L214.883 322.727L213.595 319.851H214L215.085 322.3L216.169 319.851H216.553V319.85Z" fill="black"/>
<path d="M220.714 320.945V322.731H220.341V322.282C220.166 322.578 219.826 322.759 219.349 322.759C218.697 322.759 218.297 322.419 218.297 321.921C218.297 321.477 218.582 321.105 219.409 321.105H220.324V320.93C220.324 320.437 220.045 320.168 219.508 320.168C219.135 320.168 218.785 320.299 218.55 320.508L218.375 320.217C218.665 319.971 219.093 319.828 219.547 319.828C220.292 319.828 220.714 320.2 220.714 320.945ZM220.325 321.866V321.394H219.421C218.862 321.394 218.681 321.614 218.681 321.91C218.681 322.244 218.95 322.452 219.41 322.452C219.848 322.452 220.171 322.244 220.325 321.866Z" fill="black"/>
<path d="M227.964 321.06V322.731H227.575V321.098C227.575 320.491 227.268 320.178 226.748 320.178C226.156 320.178 225.784 320.562 225.784 321.219V322.731H225.395V321.098C225.395 320.491 225.088 320.178 224.562 320.178C223.976 320.178 223.598 320.562 223.598 321.219V322.731H223.209V319.849H223.581V320.375C223.784 320.03 224.156 319.827 224.638 319.827C225.115 319.827 225.487 320.03 225.662 320.435C225.87 320.062 226.281 319.827 226.801 319.827C227.504 319.828 227.964 320.233 227.964 321.06Z" fill="black"/>
<path d="M231.545 321.411H229.135C229.178 322.014 229.639 322.414 230.269 322.414C230.619 322.414 230.932 322.288 231.151 322.036L231.37 322.288C231.113 322.595 230.713 322.759 230.258 322.759C229.36 322.759 228.746 322.146 228.746 321.291C228.746 320.437 229.343 319.828 230.154 319.828C230.965 319.828 231.551 320.425 231.551 321.291C231.55 321.323 231.545 321.367 231.545 321.411ZM229.135 321.121H231.178C231.129 320.557 230.718 320.162 230.154 320.162C229.595 320.162 229.184 320.557 229.135 321.121Z" fill="black"/>
<path d="M237.102 321.06V322.731H236.713V321.098C236.713 320.491 236.406 320.178 235.886 320.178C235.294 320.178 234.922 320.562 234.922 321.219V322.731H234.533V321.098C234.533 320.491 234.226 320.178 233.7 320.178C233.114 320.178 232.736 320.562 232.736 321.219V322.731H232.347V319.849H232.719V320.375C232.922 320.03 233.294 319.827 233.776 319.827C234.253 319.827 234.625 320.03 234.8 320.435C235.008 320.062 235.419 319.827 235.939 319.827C236.642 319.828 237.102 320.233 237.102 321.06Z" fill="black"/>
<path d="M241.083 321.291C241.083 322.162 240.47 322.759 239.648 322.759C239.171 322.759 238.771 322.551 238.536 322.162V322.731H238.164V318.667H238.553V320.397C238.794 320.025 239.189 319.828 239.649 319.828C240.469 319.828 241.083 320.42 241.083 321.291ZM240.694 321.291C240.694 320.617 240.228 320.168 239.62 320.168C239.006 320.168 238.546 320.617 238.546 321.291C238.546 321.965 239.006 322.414 239.62 322.414C240.228 322.414 240.694 321.965 240.694 321.291Z" fill="black"/>
<path d="M244.389 321.411H241.979C242.023 322.014 242.483 322.414 243.113 322.414C243.464 322.414 243.776 322.288 243.995 322.036L244.214 322.288C243.957 322.595 243.557 322.759 243.102 322.759C242.204 322.759 241.59 322.146 241.59 321.291C241.59 320.437 242.187 319.828 242.998 319.828C243.809 319.828 244.395 320.425 244.395 321.291C244.394 321.323 244.389 321.367 244.389 321.411ZM241.979 321.121H244.022C243.973 320.557 243.562 320.162 242.998 320.162C242.439 320.162 242.028 320.557 241.979 321.121Z" fill="black"/>
<path d="M246.642 319.828V320.206C246.609 320.206 246.576 320.2 246.549 320.2C245.947 320.2 245.579 320.584 245.579 321.264V322.732H245.19V319.85H245.563V320.414C245.744 320.031 246.11 319.828 246.642 319.828Z" fill="black"/>
<path d="M249.163 319.878C249.163 319.483 248.84 319.209 248.281 319.209C247.816 319.209 247.476 319.362 247.235 319.653L246.945 319.433C247.241 319.072 247.696 318.864 248.309 318.864C249.076 318.864 249.569 319.231 249.569 319.817C249.569 320.753 248.567 320.797 248.567 321.581H248.161C248.161 320.677 249.163 320.595 249.163 319.878ZM248.079 322.474C248.079 322.316 248.205 322.195 248.364 322.195C248.529 322.195 248.654 322.316 248.654 322.474C248.654 322.627 248.528 322.759 248.364 322.759C248.205 322.759 248.079 322.627 248.079 322.474Z" fill="black"/>
<path d="M251.872 318.897H252.76V322.009H254.682V322.732H251.872V318.897Z" fill="black"/>
<path d="M254.882 321.258C254.882 320.37 255.567 319.74 256.504 319.74C257.441 319.74 258.12 320.37 258.12 321.258C258.12 322.146 257.441 322.776 256.504 322.776C255.566 322.775 254.882 322.146 254.882 321.258ZM257.254 321.258C257.254 320.748 256.931 320.442 256.503 320.442C256.076 320.442 255.747 320.749 255.747 321.258C255.747 321.768 256.076 322.074 256.503 322.074C256.931 322.074 257.254 321.768 257.254 321.258Z" fill="black"/>
<path d="M261.732 319.784V322.238C261.732 323.334 261.141 323.838 260.078 323.838C259.519 323.838 258.977 323.701 258.632 323.433L258.972 322.82C259.224 323.022 259.635 323.154 260.012 323.154C260.615 323.154 260.878 322.88 260.878 322.348V322.222C260.653 322.469 260.33 322.589 259.947 322.589C259.131 322.589 258.473 322.025 258.473 321.165C258.473 320.305 259.13 319.74 259.947 319.74C260.358 319.74 260.698 319.878 260.922 320.162V319.784H261.732ZM260.888 321.165C260.888 320.732 260.565 320.441 260.116 320.441C259.667 320.441 259.338 320.732 259.338 321.165C259.338 321.598 259.667 321.888 260.116 321.888C260.565 321.888 260.888 321.598 260.888 321.165Z" fill="black"/>
<path d="M263.976 318.897C263.976 318.629 264.189 318.42 264.507 318.42C264.825 318.42 265.038 318.617 265.038 318.881C265.038 319.165 264.825 319.373 264.507 319.373C264.19 319.373 263.976 319.165 263.976 318.897ZM264.08 319.784H264.934V322.731H264.08V319.784Z" fill="black"/>
<path d="M268.743 321.044V322.732H267.889V321.176C267.889 320.699 267.67 320.481 267.292 320.481C266.881 320.481 266.586 320.733 266.586 321.275V322.732H265.732V319.785H266.548V320.131C266.778 319.879 267.123 319.741 267.523 319.741C268.217 319.74 268.743 320.146 268.743 321.044Z" fill="black"/>
</g>
<path d="M297.914 330.632H167.077V353.035H297.914V330.632Z" fill="#D27511"/>
<path d="M215.602 345.314L213.948 342.959C213.794 342.97 213.63 342.98 213.466 342.98H211.571V345.314H210.475V337.645H213.466C215.46 337.645 216.665 338.653 216.665 340.318C216.665 341.502 216.052 342.356 214.978 342.74L216.796 345.314H215.602ZM215.569 340.317C215.569 339.221 214.835 338.597 213.433 338.597H211.571V342.048H213.433C214.835 342.049 215.569 341.413 215.569 340.317Z" fill="white"/>
<path d="M223.518 342.761H218.807C218.939 343.78 219.76 344.459 220.911 344.459C221.59 344.459 222.16 344.228 222.587 343.758L223.168 344.437C222.642 345.051 221.842 345.379 220.878 345.379C219.004 345.379 217.755 344.142 217.755 342.41C217.755 340.69 218.993 339.452 220.67 339.452C222.346 339.452 223.54 340.657 223.54 342.443C223.539 342.53 223.528 342.662 223.518 342.761ZM218.806 342.005H222.531C222.422 341.029 221.687 340.34 220.669 340.34C219.661 340.34 218.916 341.019 218.806 342.005Z" fill="white"/>
<path d="M230.556 339.507V344.525C230.556 346.574 229.515 347.505 227.543 347.505C226.48 347.505 225.407 347.209 224.772 346.639L225.276 345.828C225.813 346.288 226.656 346.584 227.511 346.584C228.881 346.584 229.505 345.949 229.505 344.634V344.174C229.001 344.777 228.245 345.072 227.412 345.072C225.736 345.072 224.465 343.932 224.465 342.257C224.465 340.581 225.736 339.452 227.412 339.452C228.278 339.452 229.066 339.769 229.559 340.405V339.507H230.556ZM229.525 342.257C229.525 341.128 228.692 340.372 227.531 340.372C226.359 340.372 225.526 341.128 225.526 342.257C225.526 343.374 226.359 344.153 227.531 344.153C228.693 344.152 229.525 343.374 229.525 342.257Z" fill="white"/>
<path d="M232.379 337.71C232.379 337.327 232.686 337.02 233.091 337.02C233.496 337.02 233.803 337.316 233.803 337.689C233.803 338.084 233.507 338.39 233.091 338.39C232.686 338.39 232.379 338.094 232.379 337.71ZM232.565 339.507H233.617V345.314H232.565V339.507Z" fill="white"/>
<path d="M234.891 344.7L235.329 343.867C235.822 344.218 236.611 344.47 237.367 344.47C238.342 344.47 238.748 344.174 238.748 343.681C238.748 342.377 235.078 343.506 235.078 341.195C235.078 340.154 236.009 339.453 237.499 339.453C238.255 339.453 239.109 339.65 239.613 339.978L239.164 340.811C238.638 340.471 238.057 340.351 237.488 340.351C236.568 340.351 236.118 340.691 236.118 341.151C236.118 342.52 239.8 341.403 239.8 343.66C239.8 344.712 238.836 345.38 237.291 345.38C236.326 345.379 235.373 345.083 234.891 344.7Z" fill="white"/>
<path d="M244.381 344.974C244.063 345.248 243.581 345.379 243.11 345.379C241.938 345.379 241.27 344.732 241.27 343.561V340.373H240.284V339.508H241.27V338.237H242.322V339.508H243.987V340.373H242.322V343.518C242.322 344.143 242.651 344.494 243.231 344.494C243.538 344.494 243.833 344.395 244.053 344.22L244.381 344.974Z" fill="white"/>
<path d="M250.685 342.761H245.973C246.105 343.78 246.926 344.459 248.077 344.459C248.756 344.459 249.326 344.228 249.753 343.758L250.334 344.437C249.808 345.051 249.008 345.379 248.044 345.379C246.17 345.379 244.922 344.142 244.922 342.41C244.922 340.69 246.16 339.452 247.837 339.452C249.513 339.452 250.707 340.657 250.707 342.443C250.706 342.53 250.695 342.662 250.685 342.761ZM245.973 342.005H249.698C249.589 341.029 248.854 340.34 247.836 340.34C246.828 340.34 246.083 341.019 245.973 342.005Z" fill="white"/>
<path d="M255.29 339.452V340.471C255.203 340.46 255.126 340.46 255.049 340.46C253.921 340.46 253.219 341.15 253.219 342.421V345.314H252.167V339.507H253.175V340.483C253.548 339.803 254.271 339.452 255.29 339.452Z" fill="white"/>
<g opacity="0.6">
<path d="M209.593 177.608L210.037 176.672C210.661 177.236 211.728 177.644 212.808 177.644C214.259 177.644 214.883 177.08 214.883 176.349C214.883 174.298 209.798 175.594 209.798 172.475C209.798 171.18 210.805 170.077 213.012 170.077C213.995 170.077 215.015 170.341 215.711 170.821L215.315 171.781C214.584 171.313 213.756 171.097 213.012 171.097C211.585 171.097 210.974 171.697 210.974 172.428C210.974 174.479 216.059 173.196 216.059 176.278C216.059 177.561 215.028 178.665 212.809 178.665C211.524 178.664 210.265 178.232 209.593 177.608Z" fill="#263238"/>
<path d="M217.441 170.245C217.441 169.825 217.776 169.489 218.22 169.489C218.664 169.489 219 169.813 219 170.221C219 170.653 218.676 170.989 218.22 170.989C217.776 170.988 217.441 170.664 217.441 170.245ZM217.645 172.211H218.796V178.568H217.645V172.211Z" fill="#263238"/>
<path d="M227.073 172.211V177.704C227.073 179.947 225.934 180.967 223.775 180.967C222.611 180.967 221.436 180.643 220.74 180.019L221.292 179.131C221.88 179.635 222.803 179.959 223.739 179.959C225.238 179.959 225.922 179.264 225.922 177.824V177.32C225.371 177.98 224.543 178.304 223.631 178.304C221.796 178.304 220.405 177.056 220.405 175.221C220.405 173.386 221.796 172.151 223.631 172.151C224.578 172.151 225.442 172.499 225.982 173.194V172.211H227.073ZM225.946 175.222C225.946 173.987 225.035 173.159 223.763 173.159C222.48 173.159 221.568 173.987 221.568 175.222C221.568 176.445 222.48 177.297 223.763 177.297C225.035 177.296 225.946 176.445 225.946 175.222Z" fill="#263238"/>
<path d="M235.305 174.91V178.568H234.154V175.042C234.154 173.794 233.531 173.183 232.439 173.183C231.215 173.183 230.424 173.915 230.424 175.294V178.568H229.273V172.211H230.377V173.171C230.845 172.524 231.66 172.151 232.667 172.151C234.214 172.151 235.305 173.039 235.305 174.91Z" fill="#263238"/>
<path d="M246.597 172.211V178.568H245.506V177.608C245.038 178.268 244.247 178.639 243.347 178.639C241.704 178.639 240.612 177.74 240.612 175.868V172.21H241.763V175.736C241.763 176.984 242.387 177.607 243.478 177.607C244.677 177.607 245.445 176.863 245.445 175.496V172.21L246.597 172.211Z" fill="#263238"/>
<path d="M255.381 175.39C255.381 177.345 254.026 178.64 252.167 178.64C251.268 178.64 250.476 178.292 249.948 177.609V180.895H248.797V172.212H249.901V173.219C250.417 172.511 251.232 172.152 252.168 172.152C254.025 172.151 255.381 173.447 255.381 175.39ZM254.217 175.39C254.217 174.047 253.294 173.159 252.071 173.159C250.86 173.159 249.936 174.047 249.936 175.39C249.936 176.745 250.859 177.633 252.071 177.633C253.294 177.632 254.217 176.745 254.217 175.39Z" fill="#263238"/>
</g>
<path d="M297.914 225.544H167.077V247.947H297.914V225.544Z" fill="white"/>
<g opacity="0.4">
<path d="M174.237 233.093H174.916V238.925H178.511V239.512H174.238V233.093H174.237Z" fill="#263238"/>
<path d="M183.16 236.523V239.512H182.536V238.76C182.243 239.255 181.674 239.558 180.876 239.558C179.785 239.558 179.115 238.99 179.115 238.155C179.115 237.413 179.592 236.789 180.977 236.789H182.508V236.496C182.508 235.671 182.04 235.221 181.142 235.221C180.518 235.221 179.931 235.442 179.537 235.79L179.243 235.304C179.729 234.891 180.444 234.653 181.205 234.653C182.454 234.651 183.16 235.275 183.16 236.523ZM182.509 238.064V237.275H180.996C180.06 237.275 179.758 237.642 179.758 238.137C179.758 238.696 180.207 239.044 180.978 239.044C181.711 239.044 182.252 238.695 182.509 238.064Z" fill="#263238"/>
<path d="M184.261 238.962L184.555 238.448C184.94 238.751 185.592 238.989 186.27 238.989C187.187 238.989 187.564 238.677 187.564 238.2C187.564 236.944 184.437 237.934 184.437 236.027C184.437 235.238 185.116 234.651 186.345 234.651C186.968 234.651 187.647 234.826 188.05 235.1L187.766 235.623C187.344 235.329 186.84 235.21 186.345 235.21C185.473 235.21 185.089 235.549 185.089 236.008C185.089 237.31 188.216 236.329 188.216 238.182C188.216 239.016 187.483 239.557 186.226 239.557C185.426 239.558 184.655 239.301 184.261 238.962Z" fill="#263238"/>
<path d="M191.956 239.219C191.699 239.448 191.314 239.558 190.938 239.558C190.03 239.558 189.526 239.044 189.526 238.155V235.239H188.664V234.689H189.526V233.634H190.177V234.689H191.644V235.239H190.177V238.119C190.177 238.687 190.47 238.999 191.011 238.999C191.277 238.999 191.543 238.917 191.726 238.752L191.956 239.219Z" fill="#263238"/>
<path d="M201.044 233.093V239.512H200.484L196.358 234.303V239.512H195.679V233.093H196.239L200.375 238.302V233.093H201.044Z" fill="#263238"/>
<path d="M206.638 236.523V239.512H206.015V238.76C205.721 239.255 205.153 239.558 204.355 239.558C203.264 239.558 202.594 238.99 202.594 238.155C202.594 237.413 203.071 236.789 204.456 236.789H205.987V236.496C205.987 235.671 205.519 235.221 204.621 235.221C203.997 235.221 203.411 235.442 203.016 235.79L202.723 235.304C203.209 234.891 203.924 234.653 204.685 234.653C205.932 234.651 206.638 235.275 206.638 236.523ZM205.987 238.064V237.275H204.474C203.538 237.275 203.236 237.642 203.236 238.137C203.236 238.696 203.685 239.044 204.456 239.044C205.189 239.044 205.73 238.695 205.987 238.064Z" fill="#263238"/>
<path d="M216.368 236.715V239.512H215.717V236.78C215.717 235.761 215.203 235.239 214.332 235.239C213.342 235.239 212.718 235.882 212.718 236.981V239.512H212.067V236.78C212.067 235.761 211.553 235.239 210.673 235.239C209.692 235.239 209.059 235.882 209.059 236.981V239.512H208.408V234.689H209.031V235.569C209.37 234.992 209.994 234.652 210.801 234.652C211.599 234.652 212.222 234.992 212.516 235.671C212.865 235.047 213.553 234.652 214.424 234.652C215.598 234.651 216.368 235.33 216.368 236.715Z" fill="#263238"/>
<path d="M222.357 237.302H218.322C218.396 238.311 219.166 238.981 220.22 238.981C220.807 238.981 221.33 238.77 221.697 238.348L222.064 238.77C221.633 239.283 220.963 239.558 220.203 239.558C218.699 239.558 217.672 238.531 217.672 237.101C217.672 235.67 218.671 234.652 220.029 234.652C221.386 234.652 222.367 235.652 222.367 237.101C222.367 237.155 222.357 237.229 222.357 237.302ZM218.322 236.815H221.743C221.66 235.871 220.973 235.211 220.028 235.211C219.093 235.211 218.405 235.871 218.322 236.815Z" fill="#263238"/>
</g>
<path d="M297.914 194.941H167.077V217.344H297.914V194.941Z" fill="white"/>
<g opacity="0.4">
<path d="M174.915 203.076V205.598H178.235V206.185H174.915V208.909H174.236V202.49H178.638V203.077L174.915 203.076Z" fill="#263238"/>
<path d="M179.667 202.563C179.667 202.315 179.878 202.105 180.144 202.105C180.41 202.105 180.621 202.307 180.621 202.555C180.621 202.821 180.419 203.032 180.144 203.032C179.877 203.03 179.667 202.819 179.667 202.563ZM179.813 204.085H180.464V208.909H179.813V204.085Z" fill="#263238"/>
<path d="M184.71 204.048V204.681C184.655 204.681 184.6 204.672 184.554 204.672C183.545 204.672 182.931 205.314 182.931 206.451V208.909H182.28V204.085H182.904V205.03C183.206 204.388 183.821 204.048 184.71 204.048Z" fill="#263238"/>
<path d="M185.251 208.358L185.544 207.844C185.929 208.147 186.581 208.385 187.259 208.385C188.176 208.385 188.552 208.074 188.552 207.597C188.552 206.341 185.425 207.331 185.425 205.424C185.425 204.636 186.104 204.048 187.333 204.048C187.957 204.048 188.635 204.222 189.039 204.497L188.755 205.02C188.333 204.727 187.829 204.607 187.334 204.607C186.462 204.607 186.078 204.946 186.078 205.405C186.078 206.707 189.205 205.726 189.205 207.578C189.205 208.413 188.472 208.954 187.215 208.954C186.417 208.955 185.646 208.698 185.251 208.358Z" fill="#263238"/>
<path d="M192.946 208.615C192.689 208.844 192.304 208.954 191.928 208.954C191.02 208.954 190.516 208.44 190.516 207.551V204.635H189.654V204.085H190.516V203.03H191.167V204.085H192.634V204.635H191.167V207.514C191.167 208.083 191.461 208.394 192.002 208.394C192.268 208.394 192.534 208.311 192.717 208.147L192.946 208.615Z" fill="#263238"/>
<path d="M202.034 202.489V208.908H201.474L197.348 203.699V208.908H196.669V202.489H197.229L201.365 207.698V202.489H202.034Z" fill="#263238"/>
<path d="M207.629 205.919V208.909H207.005V208.157C206.711 208.652 206.143 208.955 205.345 208.955C204.254 208.955 203.584 208.386 203.584 207.552C203.584 206.809 204.061 206.186 205.446 206.186H206.977V205.892C206.977 205.067 206.509 204.617 205.611 204.617C204.987 204.617 204.4 204.837 204.006 205.186L203.713 204.7C204.199 204.287 204.914 204.049 205.675 204.049C206.922 204.048 207.629 204.672 207.629 205.919ZM206.977 207.46V206.671H205.464C204.528 206.671 204.226 207.038 204.226 207.533C204.226 208.092 204.675 208.441 205.446 208.441C206.18 208.441 206.721 208.092 206.977 207.46Z" fill="#263238"/>
<path d="M217.358 206.112V208.909H216.707V206.176C216.707 205.158 216.193 204.636 215.322 204.636C214.332 204.636 213.708 205.278 213.708 206.378V208.909H213.057V206.176C213.057 205.158 212.543 204.636 211.663 204.636C210.682 204.636 210.049 205.278 210.049 206.378V208.909H209.398V204.085H210.022V204.965C210.361 204.387 210.985 204.048 211.792 204.048C212.59 204.048 213.213 204.387 213.507 205.066C213.856 204.442 214.544 204.048 215.415 204.048C216.588 204.048 217.358 204.727 217.358 206.112Z" fill="#263238"/>
<path d="M223.348 206.699H219.313C219.387 207.708 220.157 208.377 221.211 208.377C221.798 208.377 222.321 208.166 222.688 207.744L223.055 208.166C222.624 208.679 221.954 208.955 221.194 208.955C219.69 208.955 218.663 207.928 218.663 206.497C218.663 205.066 219.662 204.048 221.02 204.048C222.377 204.048 223.358 205.048 223.358 206.497C223.357 206.552 223.348 206.625 223.348 206.699ZM219.313 206.212H222.734C222.651 205.268 221.964 204.607 221.019 204.607C220.083 204.608 219.395 205.268 219.313 206.212Z" fill="#263238"/>
</g>
<path d="M136.442 345.55C136.442 345.55 129.822 340.031 124.146 345.55C118.47 351.069 117.374 385.261 117.374 385.261" stroke="#2D545E" stroke-width="0.9446" stroke-miterlimit="10"/>
<path d="M116.904 391.863C116.904 391.863 120.806 351.737 106.114 334.874" stroke="#2D545E" stroke-width="0.9446" stroke-miterlimit="10"/>
<path d="M118.302 387.634C118.302 387.634 115.297 341.954 126.316 331.819" stroke="#2D545E" stroke-width="0.9446" stroke-miterlimit="10"/>
<path d="M116.904 387.634C116.904 387.634 116.648 357.449 108.459 352.756C100.27 348.064 96.0959 363.368 96.0959 363.368" stroke="#2D545E" stroke-width="0.9446" stroke-miterlimit="10"/>
<path d="M120.139 387.634C120.139 387.634 118.803 364.461 125.148 356.179C131.492 347.897 138.171 359.727 138.171 359.727" stroke="#2D545E" stroke-width="0.9446" stroke-miterlimit="10"/>
<path d="M117.928 390.738C117.928 390.738 122.031 336.544 115.241 327.361" stroke="#2D545E" stroke-width="0.9446" stroke-miterlimit="10"/>
<path d="M101.447 357.154C101.447 357.154 105.53 358.659 104.316 362.213C103.102 365.767 90.1909 371.615 90.1909 371.615C90.1909 371.615 84.7839 366.659 89.7499 358.598C94.7159 350.538 101.337 354.611 101.447 357.154Z" fill="#2D545E"/>
<path opacity="0.2" d="M101.447 357.154C101.447 357.154 105.53 358.659 104.316 362.213C103.102 365.767 90.1909 371.615 90.1909 371.615C90.1909 371.615 84.7839 366.659 89.7499 358.598C94.7159 350.538 101.337 354.611 101.447 357.154Z" fill="black"/>
<path d="M119.197 350.389C119.197 350.389 114.849 350.207 114.602 353.954C114.355 357.701 124.021 368.068 124.021 368.068C124.021 368.068 130.919 365.574 129.437 356.223C127.956 346.873 120.278 348.084 119.197 350.389Z" fill="#2D545E"/>
<path opacity="0.2" d="M119.197 350.389C119.197 350.389 114.849 350.207 114.602 353.954C114.355 357.701 124.021 368.068 124.021 368.068C124.021 368.068 130.919 365.574 129.437 356.223C127.956 346.873 120.278 348.084 119.197 350.389Z" fill="black"/>
<path d="M122.878 332.452C122.878 332.452 119.979 332.141 120.213 330.375C120.446 328.609 131.482 324.065 137.992 331.413C137.992 331.413 133.823 338.574 127.797 338.668C121.771 338.762 122.878 332.452 122.878 332.452Z" fill="#2D545E"/>
<path opacity="0.2" d="M122.878 332.452C122.878 332.452 119.979 332.141 120.213 330.375C120.446 328.609 131.482 324.065 137.992 331.413C137.992 331.413 133.823 338.574 127.797 338.668C121.771 338.762 122.878 332.452 122.878 332.452Z" fill="black"/>
<path d="M117.477 328.164C117.477 328.164 120.102 329.433 120.837 327.811C121.573 326.189 114.611 316.496 105.199 319.289C105.199 319.289 104.95 327.572 110.015 330.838C115.079 334.105 117.477 328.164 117.477 328.164Z" fill="#2D545E"/>
<path opacity="0.2" d="M117.477 328.164C117.477 328.164 120.102 329.433 120.837 327.811C121.573 326.189 114.611 316.496 105.199 319.289C105.199 319.289 104.95 327.572 110.015 330.838C115.079 334.105 117.477 328.164 117.477 328.164Z" fill="black"/>
<path d="M131.201 355.725C131.201 355.725 129.2 354.11 131.359 353.321C133.518 352.533 144.112 352.757 144.222 363.251C144.222 363.251 131.884 365.301 130.356 361.304C128.83 357.307 131.201 355.725 131.201 355.725Z" fill="#2D545E"/>
<path opacity="0.2" d="M131.201 355.725C131.201 355.725 129.2 354.11 131.359 353.321C133.518 352.533 144.112 352.757 144.222 363.251C144.222 363.251 131.884 365.301 130.356 361.304C128.83 357.307 131.201 355.725 131.201 355.725Z" fill="black"/>
<path d="M106.041 332.189C106.041 332.189 108.042 330.574 105.883 329.785C103.724 328.996 93.13 329.22 93.02 339.714C93.02 339.714 105.358 341.765 106.886 337.767C108.412 333.771 106.041 332.189 106.041 332.189Z" fill="#2D545E"/>
<path opacity="0.2" d="M106.041 332.189C106.041 332.189 108.042 330.574 105.883 329.785C103.724 328.996 93.13 329.22 93.02 339.714C93.02 339.714 105.358 341.765 106.886 337.767C108.412 333.771 106.041 332.189 106.041 332.189Z" fill="black"/>
<path d="M112.564 340.642C112.564 340.642 112.74 338.678 111.155 339.448C109.57 340.218 104.047 346.176 109.772 351.83C109.772 351.83 117.478 346.123 116.089 343.151C114.699 340.178 112.564 340.642 112.564 340.642Z" fill="#2D545E"/>
<path opacity="0.2" d="M112.564 340.642C112.564 340.642 112.74 338.678 111.155 339.448C109.57 340.218 104.047 346.176 109.772 351.83C109.772 351.83 117.478 346.123 116.089 343.151C114.699 340.178 112.564 340.642 112.564 340.642Z" fill="black"/>
<path d="M132.99 343.441C132.99 343.441 131.794 341.874 133.546 341.68C135.297 341.486 143.147 343.581 141.319 351.416C141.319 351.416 131.756 350.697 131.347 347.442C130.936 344.187 132.99 343.441 132.99 343.441Z" fill="#2D545E"/>
<path opacity="0.2" d="M132.99 343.441C132.99 343.441 131.794 341.874 133.546 341.68C135.297 341.486 143.147 343.581 141.319 351.416C141.319 351.416 131.756 350.697 131.347 347.442C130.936 344.187 132.99 343.441 132.99 343.441Z" fill="black"/>
<path d="M102.16 416.723H133.075L137.184 386.661H98.051L102.16 416.723Z" fill="#D27511"/>
<path opacity="0.2" d="M102.16 416.723H133.075L137.184 386.661H98.051L102.16 416.723Z" fill="white"/>
<path d="M141.059 384.224V387.08C141.059 388.991 139.51 390.541 137.598 390.541H97.2498C95.3388 390.541 93.7888 388.992 93.7888 387.08V384.224H141.059Z" fill="#D27511"/>
<path d="M398.621 99.306H369.893C365.007 99.306 361.047 103.267 361.047 108.152V133.154C361.047 138.039 365.008 142 369.893 142H378.281L376.253 149.894L384.23 142H398.621C403.506 142 407.467 138.04 407.467 133.154V108.152C407.467 103.267 403.507 99.306 398.621 99.306Z" fill="#D27511"/>
<path opacity="0.7" d="M398.621 99.306H369.893C365.007 99.306 361.047 103.267 361.047 108.152V133.154C361.047 138.039 365.008 142 369.893 142H378.281L376.253 149.894L384.23 142H398.621C403.506 142 407.467 138.04 407.467 133.154V108.152C407.467 103.267 403.507 99.306 398.621 99.306Z" fill="white"/>
<path d="M394.335 130.629C399.903 125.061 399.903 116.033 394.335 110.465C388.767 104.897 379.739 104.897 374.171 110.465C368.603 116.033 368.603 125.061 374.171 130.629C379.739 136.197 388.767 136.197 394.335 130.629Z" fill="#2D545E"/>
<path d="M382.76 126.914C382.375 126.914 382.01 126.745 381.761 126.452L376.167 119.861C375.699 119.309 375.767 118.483 376.318 118.014C376.869 117.547 377.696 117.613 378.165 118.165L382.76 123.579L390.348 114.639C390.817 114.086 391.644 114.02 392.195 114.488C392.747 114.956 392.815 115.783 392.346 116.335L383.759 126.453C383.51 126.745 383.145 126.914 382.76 126.914Z" fill="white"/>
<path d="M393.644 253.557C393.644 253.557 376.229 251.365 349.853 258.596C349.853 258.596 345.607 211.458 346.113 204.983C346.619 198.508 386.836 200.404 386.836 200.404C386.836 200.404 387.874 219.27 390.462 230.653C393.05 242.035 394.97 251.368 393.644 253.557Z" fill="#D27511"/>
<path opacity="0.2" d="M393.644 253.557C393.644 253.557 376.229 251.365 349.853 258.596C349.853 258.596 345.607 211.458 346.113 204.983C346.619 198.508 386.836 200.404 386.836 200.404C386.836 200.404 387.874 219.27 390.462 230.653C393.05 242.035 394.97 251.368 393.644 253.557Z" fill="black"/>
<path d="M337.128 409.621L344.228 411.631L345.918 400.581L346.828 394.671L339.728 392.661L338.518 400.581L337.128 409.621Z" fill="#E4897B"/>
<path d="M377.948 410.201L385.268 411.171L385.338 400.581L385.388 394.001L378.058 393.041L378.008 400.581L377.948 410.201Z" fill="#E4897B"/>
<path opacity="0.2" d="M378.058 393.041L378.008 400.581H385.338L385.388 394.001L378.058 393.041Z" fill="black"/>
<path opacity="0.2" d="M338.518 400.581H345.918L346.828 394.671L339.728 392.661L338.518 400.581Z" fill="black"/>
<path d="M305.608 208.81L298.56 206.727L299.847 214.776C299.847 214.776 306.247 216.255 306.87 212.925L305.608 208.81Z" fill="#E4897B"/>
<path d="M291.525 208.596L294.981 215.141L299.847 214.775L298.56 206.727L291.525 208.596Z" fill="#E4897B"/>
<path d="M315.34 210.867L303.765 208.276L302.713 213.898L313.222 216.461L315.34 210.867Z" fill="#E4897B"/>
<path d="M350.373 205.794C350.373 205.794 350.123 206.094 349.693 206.604C348.233 208.314 344.663 212.444 341.003 216.004C338.003 218.904 334.963 221.434 332.983 221.944C327.313 223.404 306.703 217.334 306.703 217.334L308.833 208.974C308.833 208.974 328.033 211.524 329.523 211.524C330.653 211.524 342.333 194.604 345.163 193.214L350.373 205.794Z" fill="#D27511"/>
<path opacity="0.2" d="M349.693 206.604C348.233 208.314 344.663 212.444 341.003 216.004C341.743 210.144 343.893 204.764 346.723 201.364C347.023 201.004 347.323 200.704 347.623 200.484L349.693 206.604Z" fill="black"/>
<path d="M337.215 408.513L345.278 408.296C345.58 408.288 345.849 408.49 345.925 408.781L347.619 415.274C347.795 415.947 347.301 416.603 346.604 416.61C343.694 416.639 339.485 416.583 335.829 416.681C331.554 416.796 328.837 416.586 323.824 416.721C320.793 416.803 319.842 413.775 321.101 413.465C326.832 412.052 330.578 412.331 335.459 409.133C335.988 408.786 336.578 408.53 337.215 408.513Z" fill="#263238"/>
<path d="M336.525 409.548C336.518 409.551 336.51 409.553 336.502 409.555C335.322 409.823 333.216 410.17 332.38 409.478C332.128 409.269 332.008 408.988 332.022 408.64C332.031 408.433 332.125 408.27 332.294 408.169C333.176 407.639 336.195 409.066 336.536 409.229C336.603 409.261 336.643 409.332 336.635 409.405C336.629 409.47 336.585 409.525 336.525 409.548ZM332.538 408.439C332.515 408.448 332.494 408.457 332.475 408.468C332.406 408.509 332.375 408.565 332.371 408.657C332.362 408.893 332.437 409.074 332.602 409.211C333.071 409.599 334.288 409.637 335.909 409.323C334.719 408.799 333.088 408.232 332.538 408.439Z" fill="#407BFF"/>
<path d="M336.525 409.548C336.484 409.564 336.438 409.564 336.396 409.546C335.491 409.172 333.668 407.63 333.773 406.796C333.798 406.6 333.928 406.355 334.407 406.292C334.763 406.246 335.092 406.338 335.388 406.564C336.355 407.306 336.625 409.28 336.636 409.364C336.644 409.426 336.619 409.486 336.569 409.524C336.555 409.534 336.54 409.542 336.525 409.548ZM334.277 406.678C334.134 406.732 334.124 406.811 334.12 406.842C334.057 407.343 335.302 408.559 336.231 409.079C336.115 408.503 335.81 407.326 335.175 406.839C334.954 406.669 334.718 406.603 334.454 406.637C334.38 406.647 334.322 406.661 334.277 406.678Z" fill="#407BFF"/>
<path d="M378.241 408.513L386.304 408.296C386.606 408.288 386.875 408.49 386.951 408.781L388.645 415.274C388.821 415.947 388.327 416.603 387.63 416.61C384.72 416.639 380.511 416.583 376.855 416.681C372.58 416.796 369.863 416.586 364.85 416.721C361.819 416.803 360.868 413.775 362.127 413.465C367.858 412.052 371.604 412.331 376.485 409.133C377.013 408.786 377.604 408.53 378.241 408.513Z" fill="#263238"/>
<path d="M377.551 409.548C377.544 409.551 377.536 409.553 377.528 409.555C376.347 409.823 374.242 410.17 373.406 409.478C373.154 409.269 373.034 408.988 373.048 408.64C373.057 408.433 373.151 408.27 373.32 408.169C374.202 407.639 377.221 409.066 377.562 409.229C377.629 409.261 377.669 409.332 377.661 409.405C377.655 409.47 377.611 409.525 377.551 409.548ZM373.564 408.439C373.541 408.448 373.52 408.457 373.501 408.468C373.432 408.509 373.401 408.565 373.398 408.657C373.389 408.893 373.464 409.074 373.629 409.211C374.098 409.599 375.315 409.637 376.936 409.323C375.745 408.799 374.114 408.232 373.564 408.439Z" fill="#407BFF"/>
<path d="M377.551 409.548C377.51 409.564 377.464 409.564 377.422 409.546C376.517 409.172 374.694 407.63 374.799 406.796C374.824 406.6 374.954 406.355 375.433 406.292C375.789 406.246 376.119 406.338 376.414 406.564C377.381 407.306 377.651 409.28 377.662 409.364C377.67 409.426 377.645 409.486 377.595 409.524C377.581 409.534 377.566 409.542 377.551 409.548ZM375.303 406.678C375.16 406.732 375.15 406.811 375.146 406.842C375.083 407.343 376.328 408.559 377.257 409.079C377.141 408.503 376.836 407.326 376.201 406.839C375.98 406.669 375.744 406.603 375.481 406.637C375.405 406.647 375.348 406.661 375.303 406.678Z" fill="#407BFF"/>
<path d="M393.049 249.257C396.927 266.073 390.272 398.322 390.272 398.322H377.41L371.911 288.107L351.656 398.322L337.91 397.321C346.896 311.944 354.84 260.971 354.84 260.971L354.821 254.53L393.049 249.257Z" fill="#263238"/>
<path opacity="0.4" d="M337.908 397.321L351.658 398.321L367.598 311.561L371.908 288.111L377.408 398.321H390.268C390.268 398.321 396.928 266.071 393.048 249.261L354.818 254.531L354.838 260.971C354.838 260.971 346.898 311.941 337.908 397.321Z" fill="white"/>
<path d="M386.121 186.99C385.656 195.226 386.009 203.441 386.733 211.091C387.266 216.687 388.011 221.978 388.801 226.752C390.65 237.943 392.75 246.33 393.049 249.257C387.447 250.032 366.334 252.946 354.821 254.53C340.881 215.552 346.131 192.865 346.131 192.865C346.131 192.865 350.117 191.162 354.899 189.865C355.528 189.69 356.172 189.532 356.828 189.381C361.073 188.397 368.165 187.579 373.081 187.138C374.115 187.046 375.166 186.98 376.192 186.932C381.414 186.694 386.121 186.99 386.121 186.99Z" fill="#263238"/>
<path d="M365.659 169.45C365.939 174.804 366.508 184.842 370.956 187.387C370.956 187.387 368.187 192.662 362.196 193.198C357.665 193.604 357.966 189.135 357.966 189.135C360.587 187.176 359.958 183.867 357.963 180.136L365.659 169.45Z" fill="#E4897B"/>
<path opacity="0.2" d="M362.523 173.809L357.967 180.13C358.443 181.012 358.868 181.921 359.168 182.831C361.275 181.989 363.677 178.875 363.335 176.54C363.165 175.375 362.842 174.294 362.523 173.809Z" fill="black"/>
<path d="M346.161 158.685C345.287 161.46 345.766 167.162 349.644 165.308C353.522 163.454 347.663 153.915 346.161 158.685Z" fill="#263238"/>
<path d="M366.159 162.435C366.585 169.568 367.199 173.725 364.054 177.762C359.324 183.834 350.161 181.569 347.605 174.687C345.304 168.492 344.994 157.868 351.603 154.272C358.115 150.729 365.733 155.302 366.159 162.435Z" fill="#E4897B"/>
<path d="M361.158 158.557V150.588C361.158 150.588 369.64 149.958 369.263 154.299C373.961 156.629 371.74 163.938 365.43 167.522C361.972 164.754 362.367 158.088 362.367 158.088C361.994 158.253 361.584 158.408 361.158 158.557Z" fill="#263238"/>
<path d="M369.61 168.005C369.266 169.897 368.075 171.446 366.756 172.314C364.771 173.62 363.035 172.015 362.964 169.76C362.9 167.73 363.856 164.605 366.148 164.203C368.405 163.808 370.004 165.842 369.61 168.005Z" fill="#E4897B"/>
<path d="M355.626 165.619C355.696 166.196 355.447 166.698 355.069 166.74C354.691 166.782 354.328 166.349 354.257 165.772C354.187 165.195 354.436 164.693 354.814 164.651C355.192 164.609 355.556 165.042 355.626 165.619Z" fill="#263238"/>
<path d="M349.089 166.349C349.159 166.926 348.91 167.428 348.532 167.47C348.154 167.512 347.791 167.079 347.72 166.502C347.65 165.925 347.899 165.423 348.277 165.381C348.655 165.339 349.018 165.772 349.089 166.349Z" fill="#263238"/>
<path d="M351.202 166.404C351.202 166.404 350.244 169.758 348.972 171.477C350.091 172.265 351.777 171.634 351.777 171.634L351.202 166.404Z" fill="#DE5753"/>
<path d="M355.145 173.494C354.912 173.553 354.663 173.598 354.398 173.628C354.304 173.638 354.219 173.571 354.208 173.478C354.196 173.384 354.266 173.3 354.357 173.29C356.897 173.003 357.865 171.105 357.875 171.086C357.916 171.002 358.02 170.969 358.104 171.01C358.189 171.052 358.224 171.155 358.182 171.239C358.144 171.315 357.309 172.953 355.145 173.494Z" fill="#263238"/>
<path d="M357.385 163.288C357.27 163.317 357.142 163.285 357.053 163.192C355.992 162.09 354.752 162.302 354.739 162.304C354.553 162.338 354.374 162.215 354.338 162.031C354.302 161.846 354.425 161.668 354.609 161.634C354.674 161.622 356.229 161.355 357.545 162.723C357.676 162.86 357.673 163.075 357.537 163.205C357.493 163.247 357.44 163.274 357.385 163.288Z" fill="#263238"/>
<path d="M345.999 164.421C345.936 164.437 345.868 164.435 345.802 164.412C345.623 164.349 345.528 164.154 345.59 163.977C346.207 162.196 347.732 161.823 347.798 161.797C347.981 161.753 348.167 161.866 348.213 162.048C348.259 162.23 348.149 162.413 347.967 162.459C347.903 162.472 346.731 162.775 346.236 164.204C346.198 164.316 346.106 164.394 345.999 164.421Z" fill="#263238"/>
<path d="M364.924 161.517C364.924 161.517 359.952 159.694 357.641 156.793C357.641 156.793 353.103 157.98 352.173 159.826C352.173 159.826 350.599 158.507 351.778 156.793C351.778 156.793 348.382 157.51 347.708 159.826C347.708 159.826 346.013 159.245 346.114 156.793C346.114 156.793 344.6 157.363 344.122 159.826C344.122 159.826 340.366 152.013 352.755 149.771C352.755 149.771 351.777 149.359 349.853 149.276C349.853 149.276 358.495 145.789 365.352 148.983C372.21 152.178 370.957 158.31 364.924 161.517Z" fill="#263238"/>
<path d="M396.003 255.984L384.013 257.584C384.013 257.584 379.063 222.994 376.883 211.824V187.964L383.153 186.314L387.983 187.964C389.143 191.834 390.163 196.914 391.053 202.564C391.643 206.304 392.173 210.304 392.643 214.354C393.293 219.874 393.833 225.494 394.293 230.754C395.013 239.244 395.493 246.764 395.753 251.344C395.923 254.264 396.003 255.984 396.003 255.984Z" fill="#D27511"/>
<path d="M376.884 211.821C376.884 211.821 377.88 194.993 383.155 186.311C383.155 186.311 383.023 183.827 381.968 183.431C380.913 183.035 376.884 185.409 376.884 185.409C376.884 185.409 374.372 183.695 373.819 184.486C373.266 185.277 371.931 190.629 376.884 211.821Z" fill="#D27511"/>
<path opacity="0.7" d="M376.884 211.821C376.884 211.821 377.88 194.993 383.155 186.311C383.155 186.311 383.023 183.827 381.968 183.431C380.913 183.035 376.884 185.409 376.884 185.409C376.884 185.409 374.372 183.695 373.819 184.486C373.266 185.277 371.931 190.629 376.884 211.821Z" fill="white"/>
<path d="M349.598 260.615L350.968 261.605C350.968 261.605 348.988 250.451 349.788 222.251C349.828 220.891 349.878 219.581 349.928 218.331C350.948 194.471 354.648 190.131 354.888 189.871L351.428 191.051L345.158 193.211C343.308 213.571 349.598 260.615 349.598 260.615Z" fill="#D27511"/>
<path d="M350.141 214.226C350.141 214.226 346.678 197.872 347.708 192.234C348.737 186.596 352.43 189.101 352.43 189.101C352.43 189.101 355.823 186.363 356.83 189.38C356.83 189.38 352.173 192.661 350.141 214.226Z" fill="#D27511"/>
<path opacity="0.7" d="M350.141 214.226C350.141 214.226 346.678 197.872 347.708 192.234C348.737 186.596 352.43 189.101 352.43 189.101C352.43 189.101 355.823 186.363 356.83 189.38C356.83 189.38 352.173 192.661 350.141 214.226Z" fill="white"/>
<path opacity="0.2" d="M392.643 214.354C387.523 211.484 386.843 203.994 386.843 203.994C387.153 203.874 389.053 203.224 391.053 202.564C391.643 206.304 392.173 210.304 392.643 214.354Z" fill="black"/>
<path opacity="0.2" d="M367.598 311.561L371.908 288.111L371.078 275.701C371.078 275.701 365.168 297.221 367.598 311.561Z" fill="black"/>
<path opacity="0.2" d="M395.753 251.344C392.533 251.124 389.743 250.914 389.743 250.914L389.133 237.824C389.133 237.824 390.173 236.954 392.503 237.204C392.503 237.204 393.553 234.644 394.293 230.754C395.013 239.244 395.493 246.764 395.753 251.344Z" fill="black"/>
<path d="M396.852 230.741L390.582 240.809L395.541 243.66L401.432 234.588L396.852 230.741Z" fill="#D27511"/>
<path d="M387.733 187.838C391.955 188.302 409.889 212.919 410.68 220.341C411.471 227.762 400.145 240.572 400.145 240.572L392.576 236.119C392.576 236.119 400.262 224.309 400.658 221.157C401.054 218.005 386.611 205.083 386.611 205.083C386.611 205.083 385.034 201.287 384.834 195.823C384.633 190.359 387.733 187.838 387.733 187.838Z" fill="#D27511"/>
<path d="M389.128 237.826C389.128 237.826 395.583 239.211 398.176 243.265C398.176 243.265 395.482 251.715 393.554 252.635C391.627 253.555 386.838 253.555 386.838 253.555C386.838 253.555 386.531 244.156 389.128 237.826Z" fill="#D27511"/>
</svg>
